<?xml version="1.0" standalone="no"?>
<!DOCTYPE svg PUBLIC "-//W3C//DTD SVG 20010904//EN"
 "http://www.w3.org/TR/2001/REC-SVG-20010904/DTD/svg10.dtd">
<svg version="1.0" xmlns="http://www.w3.org/2000/svg"
 width="1280.000000pt" height="943.000000pt" viewBox="0 0 1280.000000 943.000000"
 preserveAspectRatio="xMidYMid meet">
<metadata>
Created by potrace 1.15, written by Peter Selinger 2001-2017
</metadata>
<g transform="translate(0.000000,943.000000) scale(0.100000,-0.100000)"
fill="#000000" stroke="none">
<path d="M1165 9421 c-94 -23 -172 -87 -217 -179 l-33 -66 -3 -178 -4 -178
997 0 997 0 -4 178 c-3 177 -3 178 -36 244 -37 76 -82 120 -162 157 l-55 26
-725 2 c-399 0 -738 -2 -755 -6z"/>
<path d="M204 8609 c-71 -27 -137 -88 -171 -157 l-28 -57 0 -4070 0 -4070 29
-58 c35 -68 108 -140 174 -170 l47 -22 6145 0 6145 0 47 22 c71 32 141 103
174 176 l29 62 0 4065 0 4065 -22 47 c-27 60 -101 134 -161 161 l-47 22 -6155
2 c-6112 2 -6155 2 -6206 -18z m6463 -789 c853 -70 1617 -423 2214 -1022 589
-590 940 -1355 1010 -2197 15 -176 6 -547 -16 -711 -129 -960 -614 -1791
-1380 -2365 -520 -390 -1133 -625 -1790 -685 -141 -13 -469 -13 -610 0 -439
40 -835 151 -1230 345 -372 182 -661 389 -951 681 -493 496 -822 1120 -953
1806 -72 377 -80 805 -21 1191 82 536 289 1046 607 1494 546 771 1392 1292
2328 1434 233 36 560 47 792 29z m3389 -133 c178 -90 199 -338 39 -459 -138
-105 -334 -58 -411 97 -23 48 -26 64 -23 133 3 66 9 86 34 128 32 51 103 107
159 124 52 16 146 5 202 -23z"/>
<path d="M6038 7425 c-366 -44 -712 -148 -1040 -312 -527 -264 -976 -679
-1283 -1188 -475 -789 -576 -1767 -271 -2640 366 -1050 1267 -1830 2361 -2044
393 -77 880 -71 1264 15 478 107 922 321 1306 630 140 113 345 318 459 459
358 447 576 947 667 1535 20 125 23 184 23 435 0 313 -12 430 -70 695 -35 157
-130 438 -201 595 -299 659 -820 1197 -1468 1515 -338 167 -659 261 -1030 305
-159 18 -563 19 -717 0z m652 -586 c460 -49 934 -247 1305 -546 212 -171 443
-436 582 -668 486 -809 486 -1811 0 -2620 -188 -313 -481 -618 -787 -817 -899
-587 -2064 -546 -2926 103 -128 96 -335 298 -437 424 -235 291 -401 624 -490
980 -58 235 -72 348 -72 620 0 272 14 385 72 620 115 460 349 865 696 1202
354 344 783 571 1259 666 266 54 521 65 798 36z"/>
<path d="M6064 6570 c-1027 -74 -1871 -937 -1921 -1965 -3 -72 -2 -162 2 -200
l8 -70 22 130 c69 399 195 720 406 1030 238 351 557 626 944 815 234 114 459
186 719 229 65 11 121 23 124 26 3 3 -20 5 -50 5 -30 0 -75 2 -99 4 -24 2 -94
0 -155 -4z"/>
</g>
</svg>
