<!-- icon666.com - MILLIONS OF FREE VECTOR ICONS --><svg id="Glyph" viewBox="0 0 128 128" xmlns="http://www.w3.org/2000/svg"><path d="m123.58 122.9c-2 3.79-6.06 5.2-11.18 5.2-6.39 0-14.43-2.2-22.19-4.72-6.07-2-15.62-3.12-26.21-3.14s-20.14 1.17-26.2 3.14c-14 4.54-28.88 8-33.38-.48-3.93-7.43 4.16-14.38 4.5-14.67a65.53 65.53 0 0 1 18.57-12.23 55.16 55.16 0 0 0 71.22-.8c8.42 3.66 15.27 8 20.4 13.07.64.53 8.32 7.35 4.47 14.63z"></path><path d="m62.63 26.48a26.89 26.89 0 1 0 26.89 26.89 26.92 26.92 0 0 0 -26.89-26.89zm0 43a16.14 16.14 0 1 1 16.13-16.11 16.15 16.15 0 0 1 -16.13 16.13z"></path><path d="m62.63 39.23a14.14 14.14 0 1 0 14.13 14.14 14.15 14.15 0 0 0 -14.13-14.14z"></path><path d="m62.63.11a53.26 53.26 0 1 0 53.25 53.25 53.32 53.32 0 0 0 -53.25-53.25zm0 82.14a28.89 28.89 0 1 1 28.89-28.88 28.92 28.92 0 0 1 -28.89 28.88z"></path></svg>