<?xml version="1.0" standalone="no"?>
<!DOCTYPE svg PUBLIC "-//W3C//DTD SVG 20010904//EN"
 "http://www.w3.org/TR/2001/REC-SVG-20010904/DTD/svg10.dtd">
<svg version="1.0" xmlns="http://www.w3.org/2000/svg"
 width="1280.000000pt" height="1034.000000pt" viewBox="0 0 1280.000000 1034.000000"
 preserveAspectRatio="xMidYMid meet">
<metadata>
Created by potrace 1.15, written by Peter Selinger 2001-2017
</metadata>
<g transform="translate(0.000000,1034.000000) scale(0.100000,-0.100000)"
fill="#000000" stroke="none">
<path d="M9787 10330 c-287 -16 -534 -47 -604 -76 l-33 -13 0 -340 0 -340 -42
-5 c-24 -3 -113 -10 -198 -16 -461 -33 -899 -103 -1054 -170 -26 -11 -58 -31
-71 -44 -23 -23 -25 -33 -25 -116 0 -64 -4 -92 -12 -95 -7 -2 -108 -26 -225
-54 l-211 -51 -3656 0 -3656 0 0 -2010 0 -2010 1408 0 c1230 0 1418 -2 1497
-16 440 -76 804 -389 945 -812 61 -184 60 -161 60 -1364 l0 -1098 160 0 160 0
0 -320 0 -320 -158 0 -158 0 -10 -80 -9 -80 1725 -3 1725 -3 205 -45 205 -45
5 -64 c3 -36 9 -71 13 -78 5 -7 29 -23 55 -36 234 -118 971 -202 1986 -226
248 -6 483 -14 522 -18 39 -4 83 -5 98 -1 14 4 191 12 393 18 967 30 1679 114
1898 223 80 40 75 20 75 315 0 263 0 264 -23 286 -13 12 -38 30 -55 39 l-32
17 0 3714 0 3715 30 12 c16 7 41 23 55 36 l25 23 0 265 0 265 -32 25 c-18 13
-51 32 -73 41 -154 63 -602 134 -1050 165 -88 6 -175 13 -192 16 l-33 5 0 334
0 335 -23 14 c-41 28 -208 55 -467 77 -165 13 -942 20 -1143 9z m-9107 -1850
l0 -320 -197 2 -198 3 -3 318 -2 317 200 0 200 0 0 -320z m710 0 l0 -320 -200
0 -200 0 0 320 0 320 200 0 200 0 0 -320z m710 0 l0 -320 -200 0 -200 0 0 320
0 320 200 0 200 0 0 -320z m710 0 l0 -320 -200 0 -200 0 0 320 0 320 200 0
200 0 0 -320z m710 0 l0 -320 -200 0 -200 0 0 320 0 320 200 0 200 0 0 -320z
m710 0 l0 -320 -200 0 -200 0 0 320 0 320 200 0 200 0 0 -320z m710 0 l0 -320
-200 0 -200 0 0 320 0 320 200 0 200 0 0 -320z m710 0 l0 -320 -200 0 -200 0
0 320 0 320 200 0 200 0 0 -320z m708 3 l-3 -318 -197 -3 -198 -2 0 320 0 320
200 0 200 0 -2 -317z m710 0 l-3 -318 -197 -3 -198 -2 0 320 0 320 200 0 200
0 -2 -317z m-2130 -7105 l2 -318 -200 0 -200 0 0 320 0 320 198 -2 197 -3 3
-317z m710 0 l2 -318 -200 0 -200 0 0 320 0 320 198 -2 197 -3 3 -317z m710 0
l2 -318 -200 0 -200 0 0 320 0 320 198 -2 197 -3 3 -317z m710 0 l2 -318 -200
0 -200 0 0 320 0 320 198 -2 197 -3 3 -317z"/>
</g>
</svg>
