<?xml version="1.0" standalone="no"?>
<!DOCTYPE svg PUBLIC "-//W3C//DTD SVG 20010904//EN"
 "http://www.w3.org/TR/2001/REC-SVG-20010904/DTD/svg10.dtd">
<svg version="1.0" xmlns="http://www.w3.org/2000/svg"
 width="1176.000000pt" height="1280.000000pt" viewBox="0 0 1176.000000 1280.000000"
 preserveAspectRatio="xMidYMid meet">
<metadata>
Created by potrace 1.15, written by Peter Selinger 2001-2017
</metadata>
<g transform="translate(0.000000,1280.000000) scale(0.100000,-0.100000)"
fill="#000000" stroke="none">
<path d="M6915 12793 c-546 -48 -1053 -282 -1441 -668 -189 -188 -327 -381
-445 -620 -151 -308 -222 -590 -236 -936 -36 -906 477 -1757 1302 -2159 266
-130 555 -209 832 -227 l91 -6 6 44 c3 24 8 96 11 159 3 63 8 138 11 166 l6
51 -97 7 c-651 46 -1263 463 -1554 1060 -413 847 -136 1869 649 2395 274 183
566 284 908 313 l142 12 0 208 0 208 -72 -2 c-40 -1 -91 -3 -113 -5z"/>
<path d="M8870 12593 l0 -209 138 -11 c75 -7 184 -21 242 -33 568 -118 1054
-494 1310 -1015 320 -650 244 -1410 -199 -1990 -69 -91 -226 -250 -316 -320
-305 -239 -676 -387 -1028 -411 l-100 -7 7 -81 c3 -45 9 -138 12 -208 l7 -128
51 0 c137 0 412 52 588 111 856 286 1458 1017 1579 1919 19 139 16 449 -5 595
-50 339 -172 663 -354 940 -407 621 -1074 1008 -1809 1051 l-123 7 0 -210z"/>
<path d="M7141 11949 c-629 -73 -1143 -548 -1273 -1177 -29 -142 -32 -411 -4
-547 61 -308 190 -549 411 -770 183 -183 352 -289 585 -365 114 -38 280 -70
357 -70 l40 0 6 78 c4 42 10 137 13 210 l7 132 -35 0 c-50 0 -183 26 -259 51
-333 108 -606 396 -693 733 -106 406 46 847 376 1096 158 119 332 188 532 211
l106 12 0 208 0 209 -47 -1 c-27 -1 -81 -5 -122 -10z"/>
<path d="M8660 11752 l0 -210 68 -6 c110 -11 180 -26 268 -56 597 -203 878
-886 600 -1455 -120 -244 -334 -432 -603 -528 -80 -29 -215 -57 -275 -57 l-40
0 6 -47 c3 -27 8 -100 11 -163 3 -63 8 -136 11 -162 l6 -48 41 0 c64 0 212 26
312 55 253 74 489 221 669 418 363 396 484 943 321 1444 -189 576 -696 973
-1302 1019 l-93 7 0 -211z"/>
<path d="M7590 8840 c0 -1001 -2 -1820 -4 -1820 -1 0 -52 21 -112 46 -663 280
-1267 457 -1714 504 -140 14 -391 12 -505 -5 -248 -37 -488 -102 -1009 -276
-862 -288 -1786 -672 -2571 -1069 -653 -331 -990 -554 -1296 -859 -154 -154
-240 -265 -299 -384 -79 -163 -75 -93 -75 -1187 0 -969 0 -975 22 -1056 92
-347 355 -638 863 -956 558 -349 1511 -721 2185 -852 276 -54 345 -61 620 -61
278 0 337 7 620 70 487 109 1401 433 2198 779 109 47 201 86 205 86 4 0 6
-294 4 -652 -3 -710 2 -816 42 -903 76 -166 273 -269 450 -237 76 14 117 34
1380 661 489 243 890 440 891 439 2 -2 18 -28 36 -58 100 -166 262 -342 402
-438 97 -67 241 -136 343 -164 114 -31 354 -31 469 0 456 126 841 591 974
1178 69 301 65 677 -9 994 -47 203 -142 432 -246 592 -173 269 -425 461 -701
535 -87 24 -116 27 -258 26 -131 0 -174 -4 -237 -21 -511 -139 -873 -606 -989
-1277 -15 -88 -22 -178 -25 -340 l-5 -220 -830 -407 c-457 -225 -834 -408
-838 -408 -3 0 -5 251 -4 557 l3 557 187 104 c495 276 970 597 1154 781 118
119 185 209 243 326 97 199 98 207 94 1290 -4 882 -4 891 -26 975 -27 104 -95
243 -161 330 -107 142 -311 327 -537 488 l-94 66 0 2043 0 2043 -420 0 -420 0
0 -1820z m-5861 -6548 c179 -89 327 -165 330 -168 8 -8 -136 55 -260 113 -151
71 -464 243 -404 222 6 -2 156 -77 334 -167z"/>
</g>
</svg>
